HIERARCHY
ROOT Hips
{
  OFFSET 0 0 0
  CHANNELS 6 Xposition Yposition Zposition Zrotation Yrotation Xrotation
  JOINT LeftThigh
  {
    OFFSET 8.409438 0 -5.917753
    CHANNELS 3 Zrotation Yrotation Xrotation
    JOINT LeftLeg
    {
      OFFSET 0 0 -42.358652
      CHANNELS 3 Zrotation Yrotation Xrotation
      JOINT LeftFoot
      {
        OFFSET 0 0 -39.357303
        CHANNELS 3 Zrotation Yrotation Xrotation
      }
    }
  }
  JOINT RightThigh
  {
    OFFSET -8.409438 0 -5.917753
    CHANNELS 3 Zrotation Yrotation Xrotation
    JOINT RightLeg
    {
      OFFSET 0 0 -42.358652
      CHANNELS 3 Zrotation Yrotation Xrotation
      JOINT RightFoot
      {
        OFFSET 0 0 -39.357303
        CHANNELS 3 Zrotation Yrotation Xrotation
      }
    }
  }
  JOINT SpineLow
  {
    OFFSET 0 0 4.719101
    CHANNELS 3 Zrotation Yrotation Xrotation
    JOINT SpineMid
    {
      OFFSET 0 0 12.899191
      CHANNELS 3 Zrotation Yrotation Xrotation
      JOINT Chest
      {
        OFFSET 0 0 12.899191
        CHANNELS 3 Zrotation Yrotation Xrotation
        JOINT LeftShoulder
        {
          OFFSET 7.550562 1.41573 9.438202
          CHANNELS 3 Zrotation Yrotation Xrotation
          JOINT LeftArm
          {
            OFFSET 9.155056 0 4.247191
            CHANNELS 3 Zrotation Yrotation Xrotation
            JOINT LeftForearm
            {
              OFFSET 0 0 25.771955
              CHANNELS 3 Zrotation Yrotation Xrotation
              JOINT LeftHand
              {
                OFFSET 0 0 25.197169
                CHANNELS 3 Zrotation Yrotation Xrotation
              }
            }
          }
        }
        JOINT RightShoulder
        {
          OFFSET -7.550562 1.41573 9.438202
          CHANNELS 3 Zrotation Yrotation Xrotation
          JOINT RightArm
          {
            OFFSET -9.155056 0 4.247191
            CHANNELS 3 Zrotation Yrotation Xrotation
            JOINT RightForearm
            {
              OFFSET 0 0 -25.771955
              CHANNELS 3 Zrotation Yrotation Xrotation
              JOINT RightHand
              {
                OFFSET 0 0 -25.197169
                CHANNELS 3 Zrotation Yrotation Xrotation
              }
            }
          }
        }
        JOINT Neck
        {
          OFFSET 0 0 15.101124
          CHANNELS 3 Zrotation Yrotation Xrotation
          JOINT Head
          {
            OFFSET 0 0 11.325843
            CHANNELS 3 Zrotation Yrotation Xrotation
            End Site
            {
              OFFSET 0 0 14.157303
            }
          }
        }
      }
    }
  }
}
MOTION
Frames: 12
Frame Time: 0.0
0.0  101.685394  0.0  0.472035  15.105538  -99.637857  8.141054  -23.199399  4.276459  -12.969259  15.660484  19.670748  3.970437  4.737228  4.65639  -18.464567  12.94624  -1.257492  1.3928  3.991677  22.943261  0.493952  2.918747  -1.397172  1.048261  -0.624137  3.035705  2.782511  -1.834011  8.270888  2.782511  -1.834011  8.270888  5.050766  19.828218  9.939966  142.301769  19.514693  170.496846  -20.030255  21.256629  93.195325  33.180261  -36.383264  4.056173  16.816035  -6.915881  16.892458  67.072539  45.559165  35.541836  -0.688979  8.118695  -25.517175  75.86495  -8.656441  15.163409  1.649031  -0.174149  -0.297424  1.236688  -0.131416  -0.222601  
0.0  101.685394  0.0  0.470376  15.098317  -99.682904  8.281254  -23.254248  4.288678  -13.050113  15.706203  19.683716  3.91672  4.747952  4.632976  -18.275679  12.951213  -1.187048  1.311824  4.005279  22.974334  0.442843  2.937337  -1.401732  1.044528  -0.631145  3.025976  2.771742  -1.852265  8.244139  2.771742  -1.852265  8.244139  5.05903  19.849058  9.975397  142.476586  19.663739  170.495301  -20.087748  21.40221  93.12276  32.8744  -36.144713  4.237106  16.614011  -6.823935  16.777955  67.181591  45.263965  35.504617  -1.396372  9.037943  -26.977509  76.691111  -8.335652  14.237709  1.771699  -0.142233  -0.352503  1.328692  -0.107698  -0.263968  
0.0  101.685394  0.0  0.494505  15.228777  -99.67135  8.407599  -23.282086  4.282784  -13.1428  15.760998  19.708963  3.778155  4.728598  4.553251  -18.050489  12.982284  -1.111563  1.134108  4.008353  23.000079  0.334359  2.944808  -1.42211  1.017723  -0.625549  2.998212  2.70008  -1.832558  8.169232  2.70008  -1.832558  8.169232  5.003493  19.759062  10.033939  142.60462  19.825647  170.533268  -20.265057  21.623909  93.01254  32.735277  -35.804384  4.179594  16.561179  -6.842824  16.784889  67.566327  44.959009  35.585014  -2.440075  9.930989  -28.443067  77.567586  -8.087949  13.400435  1.890975  -0.13648  -0.3498  1.418153  -0.103444  -0.261931  
0.0  101.685394  0.0  0.506308  15.217299  -99.726688  8.621288  -23.322269  4.32557  -13.304501  15.789614  19.675094  3.730715  4.735915  4.527843  -17.905478  12.974096  -1.051917  1.073156  4.061767  23.026891  0.330635  2.966159  -1.418178  0.997451  -0.629285  2.985836  2.644657  -1.839772  8.135852  2.644657  -1.839772  8.135852  5.043989  19.846893  10.198039  142.850518  20.039483  170.628558  -20.34744  21.674415  92.993622  32.846213  -35.336451  3.853576  16.373234  -6.760098  16.671045  68.033135  44.597884  35.668118  -3.427986  10.900019  -30.132499  78.431902  -7.910402  12.651441  2.061646  -0.083795  -0.353676  1.546186  -0.06404  -0.264978  
0.0  101.685394  0.0  0.539499  15.333707  -99.720538  8.736013  -23.297023  4.342372  -13.350088  15.80163  19.719845  3.574743  4.699091  4.430083  -17.751649  13.003942  -1.003225  0.96456  4.087378  23.065754  0.242815  2.967955  -1.441757  0.949925  -0.622508  2.970133  2.51622  -1.814868  8.094529  2.51622  -1.814868  8.094529  5.024603  19.850412  10.301581  142.778622  20.287463  170.752084  -20.866485  21.684635  92.866221  33.315084  -34.76517  3.175121  16.306283  -6.704678  16.546981  68.576023  44.211089  35.725672  -4.661432  11.828389  -31.929932  79.270664  -7.817099  12.005508  2.315967  -0.053148  -0.350744  1.736945  -0.04119  -0.262861  
0.0  101.685394  0.0  0.562938  15.250514  -99.827481  9.005131  -23.355939  4.470537  -13.516137  15.826759  19.64807  3.525095  4.704626  4.405684  -17.596112  13.005098  -0.904713  0.970942  4.141257  23.094842  0.24142  2.981735  -1.444714  0.919272  -0.630855  2.971617  2.431503  -1.833954  8.099188  2.431503  -1.833954  8.099189  5.087311  20.014392  10.535069  143.162581  20.549843  170.927508  -20.911209  21.387947  92.96065  34.271457  -34.306384  2.301226  16.158219  -6.518823  16.389733  69.237659  43.757526  35.756835  -5.992894  12.719017  -33.906607  80.101735  -7.812378  11.469133  2.57124  0.045606  -0.368484  1.928459  0.032655  -0.276561  
0.0  101.685394  0.0  0.609483  15.344992  -99.850942  9.093986  -23.337062  4.504438  -13.557094  15.850607  19.671207  3.390483  4.684036  4.335698  -17.539619  13.071102  -0.845652  1.008765  4.153804  23.126389  0.117747  2.947206  -1.470753  0.862125  -0.620452  2.963211  2.277026  -1.798308  8.078162  2.277027  -1.798308  8.078162  5.078908  19.976201  10.65348  143.50906  20.739895  171.078818  -20.729763  20.940475  93.15992  35.135852  -34.080677  1.481028  16.13054  -6.406596  16.246075  69.871676  43.356751  35.673162  -7.516761  13.515666  -35.964539  81.020577  -7.864362  11.025655  2.87139  0.084343  -0.389498  2.153596  0.061429  -0.292527  
0.0  101.685394  0.0  0.633186  15.197249  -99.965574  9.415056  -23.441889  4.65052  -13.704738  15.900732  19.576972  3.327948  4.684644  4.322059  -17.435284  13.093888  -0.752111  1.112901  4.163994  23.140859  0.114968  2.954815  -1.469297  0.828662  -0.623239  2.968716  2.185202  -1.802012  8.094073  2.185202  -1.802012  8.094072  5.19634  20.009733  10.761621  143.797323  20.907317  171.181873  -20.765734  20.670367  93.260255  35.965623  -33.987101  0.663369  16.014575  -6.190358  16.072126  70.737953  42.851572  35.629898  -9.231659  14.253209  -38.219236  82.062147  -7.876979  10.510274  3.187518  0.171223  -0.429685  2.390759  0.12618  -0.323167  
0.0  101.685394  0.0  0.717116  15.229652  -99.981472  9.405148  -23.380689  4.644039  -13.687986  15.963383  19.614405  3.27014  4.660144  4.298075  -17.418771  13.221995  -0.711725  1.266912  4.118121  23.163012  -0.012653  2.916593  -1.493779  0.768163  -0.603776  2.966293  2.022507  -1.741451  8.08966  2.022507  -1.741451  8.089659  5.328169  19.934546  10.798433  144.164067  21.142804  171.290709  -20.32663  20.65517  93.524287  36.943844  -33.939611  -0.333123  15.992771  -6.0698  15.857744  71.68608  42.387027  35.598848  -11.142883  14.793724  -40.647872  83.254894  -7.844282  9.847034  3.51198  0.217934  -0.489518  2.634158  0.160644  -0.368405  
0.0  101.685394  0.0  0.778366  14.965068  -100.092402  9.748175  -23.469885  4.81602  -13.783309  16.023393  19.525474  3.234408  4.660398  4.297822  -17.30341  13.278117  -0.642379  1.428208  4.103336  23.164648  0.012658  2.920893  -1.484458  0.753148  -0.588279  2.969009  1.983334  -1.697414  8.097893  1.983334  -1.697414  8.097892  5.405967  19.855549  10.872716  144.515122  21.366829  171.420424  -20.184398  20.720498  93.613624  37.9265  -33.686241  -1.546753  15.950524  -5.997398  15.62261  72.917233  41.812905  35.708454  -13.352635  15.096444  -43.330917  84.587622  -7.748673  8.971388  3.830686  0.246419  -0.523809  2.873224  0.18154  -0.394419  
0.0  101.685394  0.0  0.880717  14.771651  -100.119929  9.820609  -23.397996  4.831581  -13.749596  16.083032  19.54182  3.291346  4.664946  4.335865  -17.101174  13.378218  -0.600787  1.543786  4.070076  23.176818  -0.068069  2.882343  -1.492103  0.745328  -0.554528  2.966768  1.966146  -1.604308  8.092842  1.966146  -1.604308  8.092842  5.196615  19.659216  10.833893  144.872932  21.582602  171.545201  -19.92847  20.729779  93.76054  38.784475  -33.231979  -2.922779  15.857387  -5.992074  15.282451  74.283707  41.198421  35.766228  -15.751915  15.162994  -46.188845  85.915486  -7.563244  7.979939  4.081855  0.221035  -0.584566  3.061603  0.161881  -0.439924  
0.0  101.685394  0.0  0.951848  14.391452  -100.185712  10.132115  -23.4429  4.973329  -13.732817  16.118704  19.494018  3.304637  4.664254  4.351701  -16.916481  13.400877  -0.5962  1.691356  4.074858  23.18052  7.02E-4  2.871701  -1.472786  0.739446  -0.538181  2.963854  1.95215  -1.558903  8.085442  1.95215  -1.558903  8.085442  5.176298  19.618803  10.934048  145.108029  21.787034  171.634188  -19.801731  20.627002  93.864906  39.705289  -32.662308  -4.444726  15.906512  -5.852666  14.971659  75.65115  40.567891  35.62845  -18.145628  15.068945  -49.182709  87.092163  -7.177531  7.030629  4.426561  0.253972  -0.608605  3.320172  0.186082  -0.458322  
